<?xml version="1.0" encoding="utf-8"?>
<!-- Generator: Adobe Illustrator 24.0.0, SVG Export Plug-In . SVG Version: 6.00 Build 0)  -->
<svg version="1.1" id="Layer_1" xmlns="http://www.w3.org/2000/svg" xmlns:xlink="http://www.w3.org/1999/xlink" x="0px" y="0px"
	 viewBox="0 0 256 256" enable-background="new 0 0 256 256" xml:space="preserve">
<g>
</g>
<g>
	<path fill="#FB5E3D" d="M218.642,175.26H37.358c-6.013,0-10.893,4.88-10.893,10.893v65.462h203.07c0-7.209,0-58.769,0-65.462
		C229.535,180.141,224.655,175.26,218.642,175.26z"/>
	<path fill="#FFCBC3" d="M222.339,219.145c-1.381,0-2.5-1.119-2.5-2.5v-30.492c0-0.66-0.537-1.197-1.197-1.197H50.358
		c-1.381,0-2.5-1.119-2.5-2.5s1.119-2.5,2.5-2.5h168.283c3.417,0,6.197,2.78,6.197,6.197v30.492
		C224.839,218.026,223.72,219.145,222.339,219.145z M40.358,184.956h-3c-1.381,0-2.5-1.119-2.5-2.5s1.119-2.5,2.5-2.5h3
		c1.381,0,2.5,1.119,2.5,2.5S41.739,184.956,40.358,184.956z"/>
	<path fill="#F0C020" d="M229.535,225.391v26.225H26.465v-26.225c5.937-0.065,11.863-2.157,16.656-6.264
		c9.737-8.346,24.149-8.386,33.954,0c9.792,8.374,24.203,8.357,33.954,0c9.76-8.366,24.182-8.366,33.943,0
		c9.741,8.349,24.151,8.383,33.954,0c9.798-8.379,24.21-8.352,33.954,0C217.672,223.234,223.598,225.325,229.535,225.391z"/>
	<path fill="#F0C020" d="M202.62,160.26v15.001H53.38V160.26c7.58,3.48,16.45-2.04,16.45-10.59V145
		c0.02-6.39,5.22-11.59,11.63-11.59c6.52,0,11.64,5.3,11.64,11.62v4.64c0,6.43,5.21,11.64,11.63,11.64
		c6.43,0,11.64-5.22,11.64-11.64v-11.91c0-6.42,5.2-11.63,11.63-11.63c6.49,0,11.63,5.29,11.63,11.61v11.93
		c0,6.43,5.21,11.64,11.64,11.64c6.42,0,11.63-5.22,11.63-11.64v-4.64c0-6.41,5.21-11.62,11.64-11.62c6.5,0,11.61,5.28,11.63,11.59
		v4.67C186.17,158.22,195.04,163.74,202.62,160.26z"/>
	<path fill="#EFEFEF" d="M90.691,108.29H71.083V61.547c0-2.761,2.239-5,5-5h9.608c2.761,0,5,2.239,5,5V108.29z"/>
	<path fill="#FB5E3D" d="M88.925,37.617c0,4.439-3.598,8.037-8.037,8.037c-4.439,0-8.037-3.598-8.037-8.037
		s8.037-14.838,8.037-14.838S88.925,33.178,88.925,37.617z"/>
	<path fill="#FB5E3D" d="M128,95.813L128,95.813c-3.902,0-7.066-3.163-7.066-7.066V57.238h14.131v31.509
		C135.066,92.65,131.902,95.813,128,95.813z"/>
	<path fill="#EFEFEF" d="M184.917,108.29h-19.608V61.547c0-2.761,2.239-5,5-5h9.608c2.761,0,5,2.239,5,5V108.29z"/>
	<path fill="#FB5E3D" d="M183.15,37.617c0,4.439-3.598,8.037-8.037,8.037c-4.439,0-8.037-3.598-8.037-8.037
		s8.037-14.838,8.037-14.838S183.15,33.178,183.15,37.617z"/>
	<path fill="#B34F33" d="M209.44,119.18v30.49c0,4.71-2.8,8.76-6.82,10.59c-7.58,3.48-16.45-2.04-16.45-10.59V145
		c-0.02-6.31-5.13-11.59-11.63-11.59c-6.43,0-11.64,5.21-11.64,11.62v4.64c0,6.42-5.21,11.64-11.63,11.64
		c-6.43,0-11.64-5.21-11.64-11.64v-11.93c0-6.32-5.14-11.61-11.63-11.61c-6.43,0-11.63,5.21-11.63,11.63v11.91
		c0,6.42-5.21,11.64-11.64,11.64c-6.42,0-11.63-5.21-11.63-11.64v-4.64c0-6.32-5.12-11.62-11.64-11.62
		c-6.41,0-11.61,5.2-11.63,11.59v4.67c0,8.55-8.87,14.07-16.45,10.59c-4.02-1.83-6.82-5.88-6.82-10.59v-30.49
		c0-6.01,4.88-10.89,10.9-10.89h141.08C204.56,108.29,209.44,113.17,209.44,119.18z"/>
	<path fill="#FFCBC3" d="M202.241,152.173c-1.381,0-2.5-1.119-2.5-2.5v-30.49c0-0.659-0.537-1.196-1.197-1.196H70.456
		c-1.381,0-2.5-1.119-2.5-2.5s1.119-2.5,2.5-2.5h128.088c3.417,0,6.197,2.779,6.197,6.196v30.49
		C204.741,151.054,203.622,152.173,202.241,152.173z M60.456,117.986h-3c-1.381,0-2.5-1.119-2.5-2.5s1.119-2.5,2.5-2.5h3
		c1.381,0,2.5,1.119,2.5,2.5S61.837,117.986,60.456,117.986z"/>
	<path fill="#F0C020" d="M48.918,78.1c-3.653-1.207-7.425-2.262-9.544-11.386c-1.951,8.404-5.076,9.91-9.544,11.386
		c7.286,2.408,8.385,6.394,9.544,11.386C41.371,80.881,44.673,79.503,48.918,78.1z"/>
	<path fill="#F0C020" d="M226.169,78.1c-3.653-1.207-7.425-2.262-9.544-11.386c-1.951,8.404-5.076,9.91-9.544,11.386
		c7.286,2.408,8.385,6.394,9.544,11.386C218.622,80.881,221.925,79.503,226.169,78.1z"/>
	<path fill="#F0C020" d="M137.544,15.716c-3.653-1.207-7.426-2.262-9.544-11.386c-1.951,8.404-5.076,9.91-9.544,11.386
		c7.286,2.408,8.385,6.394,9.544,11.386C129.996,18.497,133.299,17.118,137.544,15.716z"/>
	<path d="M47.894,193.891v-1.271c0-1.381-1.119-2.5-2.5-2.5s-2.5,1.119-2.5,2.5v1.271c0,1.381,1.119,2.5,2.5,2.5
		S47.894,195.272,47.894,193.891z"/>
	<path d="M85.656,200.967v-1.271c0-1.381-1.119-2.5-2.5-2.5s-2.5,1.119-2.5,2.5v1.271c0,1.381,1.119,2.5,2.5,2.5
		S85.656,202.347,85.656,200.967z"/>
	<path d="M208.499,200.331v-1.271c0-1.381-1.119-2.5-2.5-2.5s-2.5,1.119-2.5,2.5v1.271c0,1.381,1.119,2.5,2.5,2.5
		S208.499,201.712,208.499,200.331z"/>
	<path d="M130.541,193.256v-1.271c0-1.381-1.119-2.5-2.5-2.5s-2.5,1.119-2.5,2.5v1.271c0,1.381,1.119,2.5,2.5,2.5
		S130.541,194.637,130.541,193.256z"/>
	<path d="M187.326,193.891v-1.271c0-1.381-1.119-2.5-2.5-2.5s-2.5,1.119-2.5,2.5v1.271c0,1.381,1.119,2.5,2.5,2.5
		S187.326,195.272,187.326,193.891z"/>
	<path d="M149.563,202.237v-1.271c0-1.381-1.119-2.5-2.5-2.5s-2.5,1.119-2.5,2.5v1.271c0,1.381,1.119,2.5,2.5,2.5
		S149.563,203.618,149.563,202.237z"/>
	<path d="M128,35.046c-1.381,0-2.5,1.119-2.5,2.5v2.398c0,1.381,1.119,2.5,2.5,2.5s2.5-1.119,2.5-2.5v-2.398
		C130.5,36.165,129.381,35.046,128,35.046z"/>
	<path d="M118.317,41.649c-0.976,0.977-0.976,2.56,0.001,3.536l1.696,1.695c0.978,0.976,2.56,0.976,3.536-0.001
		c0.976-0.977,0.976-2.56-0.001-3.536l-1.696-1.695C120.877,40.674,119.294,40.673,118.317,41.649z"/>
	<path d="M134.544,41.649l-1.695,1.695c-0.977,0.977-0.977,2.559,0,3.535c0.977,0.977,2.559,0.977,3.535,0l1.695-1.695
		c0.977-0.977,0.977-2.559,0-3.535S135.521,40.673,134.544,41.649z"/>
	<circle cx="71.08" cy="77.899" r="2.5"/>
	<path d="M82.87,21.25c-1.004-1.296-2.961-1.292-3.96,0c-1,0.952-8.481,11.339-8.561,16.37c0,5.81,4.73,10.529,10.54,10.529
		c5.811,0,10.53-4.72,10.53-10.529C91.33,31.956,82.87,21.25,82.87,21.25z M86.42,37.62c0,3.04-2.49,5.529-5.53,5.529
		c-3.05,0-5.53-2.489-5.54-5.54c-0.162-1.977,4.02-8.495,5.54-10.59C82.075,28.726,86.674,35.554,86.42,37.62z"/>
	<path d="M164.58,37.62c0,5.81,4.72,10.529,10.529,10.529c5.811,0,10.54-4.72,10.54-10.529c-0.071-4.672-5.625-12.482-8.449-16.23
		c-1.169-1.547-3.118-1.371-4.07-0.14v0.01C170.363,24.792,164.652,32.963,164.58,37.62z M175.109,27.019
		c1.197,1.704,5.794,8.535,5.54,10.601c-0.01,3.04-2.489,5.529-5.54,5.529c-3.05,0-5.529-2.489-5.54-5.54
		C169.448,35.316,174.183,28.388,175.109,27.019z"/>
	<circle cx="209.439" cy="129.18" r="2.5"/>
	<path d="M68.416,231.293c-1.381,0-2.5,1.119-2.5,2.5v1.26c0,1.381,1.119,2.5,2.5,2.5s2.5-1.119,2.5-2.5v-1.26
		C70.916,232.412,69.797,231.293,68.416,231.293z"/>
	<path d="M130.097,147.566c-1.381,0-2.5,1.119-2.5,2.5v1.26c0,1.381,1.119,2.5,2.5,2.5s2.5-1.119,2.5-2.5v-1.26
		C132.597,148.685,131.478,147.566,130.097,147.566z"/>
	<path d="M78.696,160.616c-1.381,0-2.5,1.119-2.5,2.5v1.261c0,1.381,1.119,2.5,2.5,2.5s2.5-1.119,2.5-2.5v-1.261
		C81.196,161.735,80.077,160.616,78.696,160.616z"/>
	<path d="M55.565,236.035c-1.381,0-2.5,1.119-2.5,2.5v1.26c0,1.381,1.119,2.5,2.5,2.5s2.5-1.119,2.5-2.5v-1.26
		C58.065,237.154,56.946,236.035,55.565,236.035z"/>
	<path d="M194.792,239.165v-1.26c0-1.381-1.119-2.5-2.5-2.5s-2.5,1.119-2.5,2.5v1.26c0,1.381,1.119,2.5,2.5,2.5
		S194.792,240.546,194.792,239.165z"/>
	<path d="M26.47,200.25c1.37,0,2.49-1.12,2.49-2.49c0-1.38-1.12-2.51-2.49-2.51c-1.38,0-2.5,1.13-2.5,2.51
		C23.97,199.13,25.09,200.25,26.47,200.25z"/>
	<path d="M248.25,249.116h-16.22c0-6.884,0-55.988,0-62.967c0-7.38-6.011-13.39-13.391-13.39h-13.52v-11.009
		c4.185-2.531,6.811-7.109,6.819-12.081v-10.49c0-1.38-1.12-2.5-2.5-2.5s-2.489,1.12-2.5,2.49v0.01v10.49
		c0,3.743-2.324,7.297-6.196,8.645c-5.925,2.024-12.062-2.438-12.074-8.645V145c-0.021-7.764-6.358-14.09-14.14-14.09
		c-7.79,0-14.131,6.34-14.131,14.12v4.64c-0.01,5.03-4.109,9.13-9.13,9.14c-5.029-0.01-9.13-4.109-9.14-9.14v-11.92
		c0-7.78-6.34-14.11-14.13-14.12c-7.79,0-14.13,6.34-14.13,14.13v11.91c-0.011,5.03-4.11,9.13-9.141,9.14
		c-5.02-0.01-9.12-4.109-9.13-9.14v-4.64c-0.01-7.78-6.359-14.11-14.13-14.12c-0.002,0-0.003,0-0.005,0c-0.002,0-0.003,0-0.005,0
		c-7.738,0-14.101,6.347-14.13,14.08v4.68c-0.011,5.138-4.251,9.13-9.16,9.14c-5.007,0-9.11-4.119-9.11-9.14v-30.49
		c0.01-4.62,3.78-8.38,8.391-8.39c17.245,0,123.271,0,141.09,0c4.62,0.01,8.39,3.77,8.399,8.39c0,1.38,1.12,2.5,2.5,2.5
		s2.5-1.12,2.5-2.5c-0.01-7.38-6.01-13.39-13.399-13.39h-11.12V61.55c-0.01-4.14-3.37-7.5-7.5-7.5h-9.61c-4.14,0-7.5,3.36-7.5,7.5
		v44.24H130.5v-7.78c4.053-1.032,7.06-4.699,7.06-9.071c0-4.005,0-28.331,0-31.699c0-1.464-1.185-2.5-2.49-2.5h-14.14
		c-1.331,0-2.49,1.071-2.49,2.5c0,7.102,0,24.529,0,31.699c0,4.372,3.007,8.039,7.061,9.071v7.78H93.189V61.55
		c0-4.14-3.37-7.5-7.5-7.5H76.08c-4.13,0-7.5,3.36-7.5,7.5v6.35c0,1.381,1.12,2.5,2.5,2.5s2.5-1.119,2.5-2.5v-6.35
		c0-1.38,1.13-2.5,2.5-2.5h9.609c1.38,0,2.5,1.12,2.5,2.5v44.24H73.58V87.899c0-1.38-1.12-2.5-2.5-2.5s-2.5,1.12-2.5,2.5v17.891
		H57.45c-7.381,0-13.391,6.01-13.391,13.39v30.49c0,4.969,2.637,9.543,6.82,12.083v11.007H37.359c-7.38,0-13.39,6.01-13.39,13.39
		v1.601c0,1.38,1.12,2.5,2.5,2.5c1.37,0,2.5-1.12,2.5-2.5l-0.01-1.601c0.01-4.619,3.78-8.38,8.399-8.39H53.38
		c6.871,0,158.393,0,165.26,0c4.62,0.01,8.391,3.771,8.391,8.39v36.56c-4.604-0.552-8.98-2.443-12.524-5.481
		c-10.768-9.229-26.414-9.23-37.205-0.002c-8.904,7.618-21.817,7.619-30.702,0.002c-10.775-9.236-26.42-9.237-37.197,0
		c-8.885,7.616-21.798,7.614-30.702-0.001c-10.791-9.23-26.438-9.228-37.205,0.001c-3.547,3.04-7.926,4.932-12.534,5.482V207.75
		c0-1.37-1.12-2.49-2.49-2.49c-1.38,0-2.5,1.12-2.5,2.49c0,5.556,0,35.043,0,41.366H7.75c-1.381,0-2.5,1.119-2.5,2.5
		s1.119,2.5,2.5,2.5h240.5c1.381,0,2.5-1.119,2.5-2.5S249.631,249.116,248.25,249.116z M123.43,73.807l9.13-4.539v6.494l-9.13,4.539
		V73.807z M132.56,59.74v3.944l-9.13,4.539V59.74H132.56z M123.43,88.939v-3.055l9.13-4.539v7.214c0,2.623-2.127,4.75-4.75,4.75h0
		C125.399,93.309,123.439,91.349,123.43,88.939z M167.81,61.55c0-1.38,1.12-2.5,2.5-2.5h9.61c1.37,0,2.49,1.12,2.5,2.5v44.24h-14.61
		V61.55z M55.88,172.76v-9.14c7.952,1.378,16.424-4.672,16.45-13.95V145c0.02-5.079,4.202-9.086,9.135-9.09
		c5.037,0.013,9.135,4.1,9.135,9.12v4.64c0,7.8,6.34,14.14,14.13,14.14c7.79-0.01,14.13-6.35,14.141-14.14v-11.91
		c0-5.02,4.1-9.12,9.13-9.13c5.02,0.01,9.12,4.1,9.13,9.12v11.92c0,7.8,6.34,14.14,14.14,14.14c7.79-0.01,14.13-6.35,14.13-14.14
		v-4.64c0.011-5.021,4.11-9.11,9.15-9.12c5.031,0,9.1,4.137,9.12,9.1v4.66c0.022,8.902,8.066,15.388,16.45,13.95v9.14H55.88z
		 M28.96,249.109v-21.355c5.805-0.571,11.335-2.913,15.788-6.729c8.885-7.614,21.797-7.616,30.701,0.002
		c10.791,9.227,26.438,9.227,37.206-0.002c8.892-7.623,21.798-7.623,30.689,0c10.77,9.231,26.417,9.23,37.206,0.001
		c8.906-7.616,21.818-7.617,30.701-0.001c4.451,3.813,9.978,6.156,15.778,6.729v21.355
		C131.822,249.109,294.506,249.128,28.96,249.109z"/>
	<path d="M41.763,66.159c-0.585-2.525-4.195-2.518-4.778,0c-1.759,7.574-4.211,8.385-7.924,9.612c-2.236,0.739-2.241,3.918,0,4.658
		c6.166,2.037,6.865,5.05,7.923,9.611c0.588,2.53,4.192,2.529,4.779,0c1.757-7.574,4.343-8.429,7.923-9.611
		c2.236-0.739,2.241-3.918,0-4.659C46.248,74.638,43.562,73.906,41.763,66.159z M39.423,82.217c-0.869-1.464-2.075-2.849-3.84-4.061
		c1.428-0.98,2.706-2.309,3.801-4.277c1.107,1.993,2.367,3.313,3.668,4.244C41.694,79.077,40.475,80.357,39.423,82.217z"/>
	<path d="M219.015,66.159c-0.585-2.525-4.195-2.518-4.778,0c-1.759,7.574-4.211,8.385-7.924,9.612c-2.236,0.739-2.241,3.918,0,4.658
		c6.167,2.037,6.865,5.05,7.923,9.611c0.588,2.53,4.192,2.529,4.779,0c1.757-7.574,4.343-8.429,7.923-9.611
		c2.236-0.739,2.241-3.918,0-4.659C223.5,74.638,220.813,73.906,219.015,66.159z M216.675,82.217
		c-0.869-1.464-2.075-2.849-3.84-4.061c1.428-0.98,2.706-2.309,3.801-4.277c1.107,1.993,2.367,3.313,3.668,4.244
		C218.946,79.077,217.727,80.357,216.675,82.217z"/>
	<path d="M138.313,13.386c-3.439-1.133-6.125-1.865-7.924-9.612c-0.585-2.524-4.195-2.518-4.779,0
		c-1.759,7.574-4.211,8.385-7.924,9.612c-2.236,0.739-2.241,3.918,0,4.658c6.166,2.037,6.865,5.05,7.923,9.611
		c0.588,2.53,4.192,2.529,4.779,0c1.757-7.574,4.343-8.429,7.923-9.611C140.549,17.306,140.554,14.127,138.313,13.386z
		 M128.049,19.832c-0.869-1.464-2.075-2.849-3.84-4.061c1.428-0.98,2.706-2.309,3.801-4.277c1.107,1.993,2.367,3.312,3.668,4.244
		C130.32,16.692,129.101,17.973,128.049,19.832z"/>
</g>
</svg>
